<?xml version="1.0" encoding="UTF-8"?><svg id="b" xmlns="http://www.w3.org/2000/svg" viewBox="0 0 1045.29 262.5"><g id="c"><g id="d"><rect x="376.39" y="6.5" width="143.74" height="35.18" fill="#30165b"/><path d="M519.62,7v34.18h-142.73V7h142.73M520.62,6h-144.73v36.18h144.73V6h0Z"/><rect x="376.39" y="42.68" width="35.18" height="107.55" fill="#1c6c6d"/><path d="M411.07,43.18v106.55h-34.18V43.18h34.18M412.07,42.18h-36.18v108.55h36.18V42.18h0Z"/><rect x="412.57" y="115.05" width="107.55" height="35.18" fill="#871728"/><path d="M519.62,115.55v34.18h-106.55v-34.18h106.55M520.62,114.55h-108.55v36.18h108.55v-36.18h0Z"/><rect x="521.12" y="115.05" width="35.18" height="143.73" fill="#30165b"/><path d="M555.81,115.55v142.73h-34.18V115.55h34.18M556.81,114.55h-36.18v144.73h36.18V114.55h0Z"/><rect x="376.39" y="223.6" width="143.74" height="35.18" fill="#871728"/><path d="M519.62,224.1v34.18h-142.73v-34.18h142.73M520.62,223.1h-144.73v36.18h144.73v-36.18h0Z"/><path d="M772.91,7v34.18h-106.55V7h106.55M773.91,6h-108.55v36.18h108.55V6h0Z"/><rect x="629.67" y="6.5" width="35.18" height="107.55" fill="#871728"/><path d="M664.36,7v106.55h-34.18V7h34.18M665.36,6h-36.18v108.55h36.18V6h0Z"/><rect x="629.67" y="223.6" width="107.55" height="35.18" fill="#1c6c6d"/><path d="M736.73,224.1v34.18h-106.55v-34.18h106.55M737.73,223.1h-108.55v36.18h108.55v-36.18h0Z"/><rect x="665.86" y="6.5" width="107.55" height="35.18" fill="#1c6c6d"/><path d="M772.91,7v34.18h-106.55V7h106.55M773.91,6h-108.55v36.18h108.55V6h0Z"/><rect x="738.23" y="151.23" width="35.18" height="107.55" fill="#871728"/><path d="M772.91,151.73v106.55h-34.18v-106.55h34.18M773.91,150.73h-36.18v108.55h36.18v-108.55h0Z"/><rect x="629.67" y="115.05" width="143.74" height="35.18" fill="#30165b"/><path d="M772.91,115.55v34.18h-142.73v-34.18h142.73M773.91,114.55h-144.73v36.18h144.73v-36.18h0Z"/><rect x="864.87" y="6.5" width="143.74" height="35.18" fill="#30165b"/><path d="M1008.1,7v34.18h-142.73V7h142.73M1009.1,6h-144.73v36.18h144.73V6h0Z"/><rect x="1009.6" y="6.5" width="35.18" height="143.73" fill="#1c6c6d"/><path d="M1044.29,7v142.73h-34.18V7h34.18M1045.29,6h-36.18v144.73h36.18V6h0Z"/><rect x="901.05" y="115.05" width="107.55" height="35.18" fill="#871728"/><path d="M1008.1,115.55v34.18h-106.55v-34.18h106.55M1009.1,114.55h-108.55v36.18h108.55v-36.18h0Z"/><rect x="864.87" y="42.68" width="35.18" height="107.55" fill="#1c6c6d"/><path d="M899.55,43.18v106.55h-34.18V43.18h34.18M900.55,42.18h-36.18v108.55h36.18V42.18h0Z"/><polygon points="1008.2 256.57 973.82 151.64 1008.2 151.64 1008.2 256.57" fill="#30165b" stroke="#000" stroke-miterlimit="10"/><polygon points="973.82 153.45 1008.2 262 973.82 262 973.82 153.45" fill="#871728" stroke="#000" stroke-miterlimit="10"/><polygon points="899.65 254.76 867.08 149.83 899.65 149.83 899.65 254.76" fill="#871728" stroke="#000" stroke-miterlimit="10"/><polygon points="865.27 149.83 899.65 260.19 865.27 260.19 865.27 149.83" fill="#30165b" stroke="#000" stroke-miterlimit="10"/></g><g id="e"><polygon points="267.81 255.81 165.38 76.55 62.93 255.59 .21 255.53 37.49 185.79 139.46 .12 190.11 .12 331.56 255.88 267.81 255.81" fill="#30165b"/><path d="M190.03.25l103.12,186.44,38.19,69.06-37.98-.04-25.49-.03-102.29-179.01-.22-.38-.22.38L62.86,255.47l-25.48-.03-36.96-.04,37.18-69.55L139.53.25h50.5M190.18,0h-50.8L37.38,185.73,0,255.65l37.38.04,25.63.03,102.37-178.92,102.36,179.13,25.64.03,38.4.04-38.4-69.43L190.18,0h0Z"/><polygon points="267.74 255.93 252.37 255.92 165.38 92.16 76.9 255.73 63 255.72 165.38 76.8 267.74 255.93" fill="#18013a"/></g></g></svg>